
######## ######## ######## ##               ######## ########  ######## ######## 
##       ##       ##       ##               ##       ##     ## ##       ##       
##       ##       ##       ##               ##       ##     ## ##       ##       
######   ######   ######   ##       ####### ######   ########  ######   ######   
##       ##       ##       ##               ##       ##   ##   ##       ##       
##       ##       ##       ##               ##       ##    ##  ##       ##       
##       ######## ######## ########         ##       ##     ## ######## ######## 


Genre:Action | Crime | Thriller
Language:English
IMDb: 
http://www.imdb.com/title/tt0990407/
Source:DVD9 R5/IMAGINE Thx.
Subtitles:Romana


Format : MPEG-4
Format profile : Base Media
Codec ID : isom
File size : 917 MiB
Duration : 1h 54mn
Overall bit rate : 1 123 Kbps


Video
Format profile : High@L4.1
Format settings, CABAC : Yes
Format settings, ReFrames : 3 frames
Codec ID : avc1
Codec ID/Info : Advanced Video Coding
Duration : 1h 54mn
Bit rate mode : Variable
Bit rate : 879 Kbps
Maximum bit rate : 6 893 Kbps
Width : 720 pixels
Height : 304 pixels
Display aspect ratio : 2.35:1
Frame rate mode : Constant
Frame rate : 25.000 fps
Color space : YUV
Chroma subsampling : 4:2:0
Bit depth : 8 bits
Scan type : Progressive
Bits/(Pixel*Frame) : 0.161
Stream size : 715 MiB (78%)
Writing library : x264


Audio
ID : 2
Format : AAC
Format/Info : Advanced Audio Codec
Format version : Version 4
Format profile : LC
Format settings, SBR : No
Codec ID : 40
Duration : 1h 54mn
Bit rate mode : Variable
Bit rate : 243 Kbps
Maximum bit rate : 296 Kbps
Channel(s) : 2 channels
Channel positions : Front: L R
Sampling rate : 44.1 KHz
Stream size : 199 MiB (22%)


Plot:
Following the death of his father, Britt Reid, heir to his father's large company, teams up with his late dad's assistant Kato to become a masked crime fighting team.





================================== 
http://thepiratebay.org/user/hiest
==================================





Screen Shots:
 
http://www.postimg.com/30000/29074.jpg
 
http://www.postimg.com/30000/29075.jpg
 
http://www.postimg.com/30000/29076.jpg
 
http://www.postimg.com/30000/29077.jpg
 
http://www.postimg.com/30000/29078.jpg
 
http://www.postimg.com/30000/29079.jpg


######## ######## ######## ##               ######## ########  ######## ######## 
##       ##       ##       ##               ##       ##     ## ##       ##       
##       ##       ##       ##               ##       ##     ## ##       ##       
######   ######   ######   ##       ####### ######   ########  ######   ######   
##       ##       ##       ##               ##       ##   ##   ##       ##       
##       ##       ##       ##               ##       ##    ##  ##       ##       
##       ######## ######## ########         ##       ##     ## ######## ######## 

